<?xml version="1.0" encoding="utf-8"?>
<!-- Generator: Adobe Illustrator 23.0.1, SVG Export Plug-In . SVG Version: 6.00 Build 0)  -->
<svg version="1.1" id="Layer_1" xmlns="http://www.w3.org/2000/svg" xmlns:xlink="http://www.w3.org/1999/xlink" x="0px" y="0px"
	 viewBox="0 0 500 700" style="enable-background:new 0 0 500 700;" xml:space="preserve">
<g>
	<path d="M188.3,201.6H203c1.9,0,3.2,0.5,4,1.5c0.8,1,1.2,2.2,1.2,3.8v20.3H221v-23.4c0-2.3-0.7-4.1-2-5.6c-1.3-1.5-3.1-2.4-5.4-2.6
		v-1.7c3.1-1.3,5.4-3.1,6.9-5.6c1.5-2.4,2.2-5,2.2-7.8v-2.3c0-2.6-0.5-5-1.4-7.3c-0.9-2.3-2.3-4.2-4.1-6c-1.8-1.7-4-3.1-6.6-4
		c-2.6-1-5.7-1.5-9.2-1.5h-26v67.8h12.8V201.6z M188.3,171.6h12.2c3.1,0,5.5,0.8,7.1,2.5c1.6,1.6,2.4,3.6,2.4,5.9v1.2
		c0,2.6-0.8,4.7-2.4,6.1c-1.6,1.5-4,2.2-7.1,2.2h-12.2V171.6z"/>
	<polygon points="322.2,215 291,215 291,199.3 319.9,199.3 319.9,187.1 291,187.1 291,171.6 321,171.6 321,159.4 278.2,159.4 
		278.2,227.2 322.2,227.2 	"/>
	<path d="M211.2,354.2c2.5-0.9,4.6-2.1,6.3-3.7c1.7-1.6,3-3.5,3.9-5.6c0.9-2.2,1.3-4.5,1.3-7v-1.2c0-3.9-1.1-7-3.2-9.3
		c-2.2-2.4-4.9-4-8.2-4.9v-1.7c3.3-0.9,6-2.5,8.2-4.8c2.2-2.3,3.2-5.4,3.2-9.3v-1.2c0-2.5-0.4-4.9-1.3-7c-0.9-2.2-2.2-4-3.9-5.6
		c-1.7-1.6-3.8-2.8-6.3-3.7c-2.5-0.9-5.3-1.4-8.6-1.4h-29.7v12.2h6.4v43.4h-6.4v12.2h29.7C205.8,355.5,208.7,355.1,211.2,354.2z
		 M192,299.9h9.3c2.7,0,4.9,0.6,6.6,1.7c1.7,1.1,2.5,3.1,2.5,5.8v0.6c0,2.7-0.8,4.6-2.5,5.8c-1.7,1.1-3.9,1.7-6.6,1.7H192V299.9z
		 M192,343.3v-15.7h9.3c2.7,0,4.9,0.6,6.6,1.7c1.7,1.2,2.5,3.1,2.5,5.8v0.6c0,2.7-0.8,4.6-2.5,5.8c-1.7,1.2-3.9,1.7-6.6,1.7H192z"/>
	<path d="M288.4,341h23.1l3.3,14.5h13.4l-16.2-67.8h-24l-16.2,67.8h13.4L288.4,341z M299.1,294.1h1.7l7.8,34.7h-17.5L299.1,294.1z"
		/>
	<path d="M178.8,478.1c2.3,2.2,5.1,4,8.5,5.2c3.4,1.3,7.3,1.9,11.8,1.9c3.8,0,7.2-0.5,10.3-1.5c3-1,5.6-2.4,7.7-4.2
		c2.1-1.8,3.8-4,4.9-6.5c1.1-2.5,1.7-5.4,1.7-8.6v-1.2c0-5.9-1.9-10.4-5.6-13.5c-3.7-3-9.2-5.2-16.3-6.5c-2.8-0.5-5.2-1.1-7-1.6
		c-1.8-0.6-3.3-1.2-4.5-2c-1.1-0.7-1.9-1.6-2.4-2.5c-0.5-0.9-0.7-2-0.7-3.1c0-2.3,0.9-4,2.8-5.4c1.9-1.3,4.4-2,7.7-2
		c3.8,0,6.8,1,8.9,3c2.1,2,3.1,4.4,3.1,7.1v2.3h12.8v-3.5c0-2.8-0.5-5.4-1.6-7.9c-1.1-2.5-2.6-4.7-4.7-6.7c-2.1-1.9-4.7-3.5-7.8-4.6
		c-3.1-1.1-6.7-1.7-10.7-1.7c-3.6,0-6.8,0.5-9.6,1.5c-2.9,1-5.3,2.3-7.4,4.1c-2,1.7-3.6,3.8-4.7,6.2c-1.1,2.4-1.7,4.9-1.7,7.7v0.6
		c0,3.4,0.6,6.2,1.7,8.5c1.2,2.3,2.8,4.3,4.9,5.8c2.1,1.5,4.6,2.8,7.4,3.7c2.8,0.9,6,1.7,9.4,2.3c2.6,0.5,4.7,1,6.4,1.6
		c1.7,0.6,3,1.4,4,2.2c1,0.8,1.6,1.7,2,2.7c0.4,1,0.6,2.1,0.6,3.1c0,2.3-0.9,4.3-2.8,6c-1.9,1.7-4.7,2.5-8.6,2.5
		c-5,0-8.6-1.2-11-3.6c-2.4-2.4-3.5-5.7-3.5-9.7v-2.3h-12.8v2.9c0,3.6,0.6,6.8,1.7,9.8C174.8,473.3,176.5,475.9,178.8,478.1z"/>
	<polygon points="291,456 319.9,456 319.9,443.8 291,443.8 291,428.3 321,428.3 321,416.1 278.2,416.1 278.2,483.9 322.2,483.9 
		322.2,471.7 291,471.7 	"/>
	<rect x="171.9" y="522.4" width="149.2" height="18.2"/>
</g>
</svg>
